<svg xmlns="http://www.w3.org/2000/svg" xmlns:xlink="http://www.w3.org/1999/xlink">
    <symbol viewBox="0 0 91 91" id="wind">
        <g>
            <path d="M73.2,18.2c-3.4,0-6.7,1.4-9,3.9c-1.5,1.6-1.4,4.1,0.2,5.7c1.6,1.5,4.1,1.4,5.7-0.2c0.8-0.9,1.9-1.4,3.1-1.4
		c2.4,0,4.3,1.9,4.3,4.3c0,2.4-1.9,4.3-4.3,4.3H9.5c-2.2,0-4,1.8-4,4s1.8,4,4,4h63.7c6.8,0,12.3-5.5,12.3-12.3
		C85.5,23.7,80,18.2,73.2,18.2z"/>
            <path d="M55,48.2H9.5c-2.2,0-4,1.8-4,4s1.8,4,4,4H55c2.4,0,4.3,1.9,4.3,4.3c0,2.4-1.9,4.3-4.3,4.3c-1.2,0-2.3-0.5-3.1-1.4
		c-1.5-1.6-4-1.7-5.7-0.2c-1.6,1.5-1.7,4-0.2,5.7c2.3,2.5,5.6,3.9,9,3.9c6.8,0,12.3-5.5,12.3-12.3C67.2,53.7,61.7,48.2,55,48.2z"/>
        </g>
    </symbol>

    <symbol viewBox="0 0 91 91" id="wet">
        <g>
            <path d="M49.4,47.2c-0.9,0-1.8,0.4-2.4,1.2c-1.2,1.6-7.4,10.1-7.4,15.7c0,6.6,5,10.5,9.8,10.5h0c4.8,0,9.8-3.9,9.8-10.5
		c0-2.6-1.3-6-3.8-10.3C52.7,49.1,51.5,47.2,49.4,47.2z"/>
            <path d="M35,27.2c-0.6-0.7-1.5-1.2-2.4-1.2c-0.9,0-1.8,0.4-2.4,1.2c-1.2,1.6-5.2,7.1-5.2,11.1c0,5,3.8,8,7.6,8s7.6-3,7.6-8
		C40.2,34.3,36.2,28.8,35,27.2z"/>
            <path d="M64.2,21.7c-1.3-2.2-2.1-3.6-4-3.6c-0.9,0-1.8,0.4-2.4,1.2c-1,1.4-3.5,4.9-3.5,7.6c0,3.8,3,6.1,5.8,6.1h0
		c2.9,0,5.8-2.3,5.8-6.1C66,25.5,65.4,23.8,64.2,21.7z"/>
        </g>
    </symbol>

    <symbol viewBox="0 0 91 91" id="raindrop">
        <path d="M48.7,17.9c-0.8-1-1.9-1.6-3.2-1.6c-1.3,0-2.4,0.6-3.2,1.6C40.6,20.2,25.4,40.6,25.4,53c0,13.6,10.2,21.7,20.1,21.7h0h0
	c9.9,0,20.1-8.1,20.1-21.7C65.6,40.6,50.4,20.2,48.7,17.9z M45.5,66.7L45.5,66.7L45.5,66.7c-5.9,0-12.1-4.8-12.1-13.7
	c0-6.6,7.1-18.5,12.1-25.9c5.6,8.2,12.1,19.7,12.1,25.9C57.6,61.9,51.4,66.7,45.5,66.7z"/>
    </symbol>

    <symbol viewBox="0 0 91 91" id="sun">
        <g>
            <path d="M45.5,23.5c-12.1,0-22,9.9-22,22c0,12.1,9.9,22,22,22c12.1,0,22-9.9,22-22C67.5,33.4,57.6,23.5,45.5,23.5z M45.5,59.5
		c-7.7,0-14-6.3-14-14c0-7.7,6.3-14,14-14c7.7,0,14,6.3,14,14C59.5,53.2,53.2,59.5,45.5,59.5z"/>
            <path d="M45.5,16.2c2.2,0,4-1.8,4-4V4.1c0-2.2-1.8-4-4-4c-2.2,0-4,1.8-4,4v8.1C41.5,14.5,43.3,16.2,45.5,16.2z"/>
            <path d="M86.9,41.5h-8.1c-2.2,0-4,1.8-4,4c0,2.2,1.8,4,4,4h8.1c2.2,0,4-1.8,4-4C90.9,43.3,89.1,41.5,86.9,41.5z"/>
            <path d="M45.5,74.8c-2.2,0-4,1.8-4,4v8.1c0,2.2,1.8,4,4,4c2.2,0,4-1.8,4-4v-8.1C49.5,76.5,47.7,74.8,45.5,74.8z"/>
            <path d="M16.2,45.5c0-2.2-1.8-4-4-4H4.1c-2.2,0-4,1.8-4,4c0,2.2,1.8,4,4,4h8.1C14.5,49.5,16.2,47.7,16.2,45.5z"/>
            <path d="M69,26c1,0,2-0.4,2.8-1.2l5.8-5.8c1.6-1.6,1.6-4.1,0-5.7c-1.6-1.6-4.1-1.6-5.7,0l-5.8,5.8c-1.6,1.6-1.6,4.1,0,5.7
		C67,25.6,68,26,69,26z"/>
            <path d="M71.8,66.2c-1.6-1.6-4.1-1.6-5.7,0c-1.6,1.6-1.6,4.1,0,5.7l5.8,5.8c0.8,0.8,1.8,1.2,2.8,1.2c1,0,2-0.4,2.8-1.2
		c1.6-1.6,1.6-4.1,0-5.7L71.8,66.2z"/>
            <path d="M19.2,66.2l-5.8,5.8c-1.6,1.6-1.6,4.1,0,5.7c0.8,0.8,1.8,1.2,2.8,1.2c1,0,2-0.4,2.8-1.2l5.8-5.8c1.6-1.6,1.6-4.1,0-5.7
		C23.3,64.6,20.7,64.6,19.2,66.2z"/>
            <path d="M19.2,24.8C19.9,25.6,21,26,22,26c1,0,2-0.4,2.8-1.2c1.6-1.6,1.6-4.1,0-5.7l-5.8-5.8c-1.6-1.6-4.1-1.6-5.7,0
		c-1.6,1.6-1.6,4.1,0,5.7L19.2,24.8z"/>
        </g>
    </symbol>

    <symbol viewBox="0 0 91 91" id="sun-rise">
        <g>
            <path d="M45.5,26.3c2.2,0,4-1.8,4-4v-8.1c0-2.2-1.8-4-4-4s-4,1.8-4,4v8.1C41.5,24.5,43.3,26.3,45.5,26.3z"/>
            <path d="M74.8,55.6c0,2.2,1.8,4,4,4h8.1c2.2,0,4-1.8,4-4s-1.8-4-4-4h-8.1C76.5,51.6,74.8,53.4,74.8,55.6z"/>
            <path d="M4.1,59.6h8.1c2.2,0,4-1.8,4-4s-1.8-4-4-4H4.1c-2.2,0-4,1.8-4,4S1.9,59.6,4.1,59.6z"/>
            <path d="M69,36.1c1,0,2-0.4,2.8-1.2l5.8-5.8c1.6-1.6,1.6-4.1,0-5.7c-1.6-1.6-4.1-1.6-5.7,0l-5.8,5.8c-1.6,1.6-1.6,4.1,0,5.7
		C67,35.7,68,36.1,69,36.1z"/>
            <path d="M19.2,34.9c0.8,0.8,1.8,1.2,2.8,1.2c1,0,2-0.4,2.8-1.2c1.6-1.6,1.6-4.1,0-5.7l-5.8-5.8c-1.6-1.6-4.1-1.6-5.7,0
		c-1.6,1.6-1.6,4.1,0,5.7L19.2,34.9z"/>
            <path d="M25.5,64.7c0.9,2,3.3,2.9,5.3,2c2-0.9,2.9-3.3,2-5.3c-0.8-1.8-1.3-3.8-1.3-5.8c0-7.7,6.3-14,14-14s14,6.3,14,14
		c0,2-0.4,4-1.3,5.8c-0.9,2,0,4.4,2,5.3c0.5,0.2,1.1,0.4,1.7,0.4c1.5,0,3-0.9,3.6-2.3c1.3-2.9,2-6,2-9.1c0-12.1-9.9-22-22-22
		c-12.1,0-22,9.9-22,22C23.5,58.8,24.2,61.8,25.5,64.7z"/>
            <path d="M86.9,72.8H4.1c-2.2,0-4,1.8-4,4s1.8,4,4,4h82.8c2.2,0,4-1.8,4-4S89.1,72.8,86.9,72.8z"/>
            <path d="M43.4,48.5l-6.1,6.1c-1.2,1.2-1.2,3.1,0,4.2c1.2,1.2,3.1,1.2,4.2,0l4-4l4,4c0.6,0.6,1.4,0.9,2.1,0.9c0.8,0,1.5-0.3,2.1-0.9
		c1.2-1.2,1.2-3.1,0-4.2l-6.1-6.1C46.4,47.4,44.6,47.4,43.4,48.5z"/>
        </g>
    </symbol>

    <symbol viewBox="0 0 91 91" id="sun-set">
        <g>
            <path d="M45.5,26.3c2.2,0,4-1.8,4-4v-8.1c0-2.2-1.8-4-4-4s-4,1.8-4,4v8.1C41.5,24.5,43.3,26.3,45.5,26.3z"/>
            <path d="M74.8,55.6c0,2.2,1.8,4,4,4h8.1c2.2,0,4-1.8,4-4s-1.8-4-4-4h-8.1C76.5,51.6,74.8,53.4,74.8,55.6z"/>
            <path d="M4.1,59.6h8.1c2.2,0,4-1.8,4-4s-1.8-4-4-4H4.1c-2.2,0-4,1.8-4,4S1.9,59.6,4.1,59.6z"/>
            <path d="M69,36.1c1,0,2-0.4,2.8-1.2l5.8-5.8c1.6-1.6,1.6-4.1,0-5.7c-1.6-1.6-4.1-1.6-5.7,0l-5.8,5.8c-1.6,1.6-1.6,4.1,0,5.7
		C67,35.7,68,36.1,69,36.1z"/>
            <path d="M19.2,34.9c0.8,0.8,1.8,1.2,2.8,1.2c1,0,2-0.4,2.8-1.2c1.6-1.6,1.6-4.1,0-5.7l-5.8-5.8c-1.6-1.6-4.1-1.6-5.7,0
		c-1.6,1.6-1.6,4.1,0,5.7L19.2,34.9z"/>
            <path d="M25.5,64.7c0.9,2,3.3,2.9,5.3,2c2-0.9,2.9-3.3,2-5.3c-0.8-1.8-1.3-3.8-1.3-5.8c0-7.7,6.3-14,14-14s14,6.3,14,14
		c0,2-0.4,4-1.3,5.8c-0.9,2,0,4.4,2,5.3c0.5,0.2,1.1,0.4,1.7,0.4c1.5,0,3-0.9,3.6-2.3c1.3-2.9,2-6,2-9.1c0-12.1-9.9-22-22-22
		c-12.1,0-22,9.9-22,22C23.5,58.8,24.2,61.8,25.5,64.7z"/>
            <path d="M86.9,72.8H4.1c-2.2,0-4,1.8-4,4s1.8,4,4,4h82.8c2.2,0,4-1.8,4-4S89.1,72.8,86.9,72.8z"/>
            <path d="M49.5,51.5l-4,4l-4-4c-1.2-1.2-3.1-1.2-4.2,0c-1.2,1.2-1.2,3.1,0,4.2l6.1,6.1c0.6,0.6,1.4,0.9,2.1,0.9s1.5-0.3,2.1-0.9
		l6.1-6.1c1.2-1.2,1.2-3.1,0-4.2C52.6,50.4,50.7,50.4,49.5,51.5z"/>
        </g>
    </symbol>

    <symbol viewBox="0 0 91 91" id="moon-set">
        <path d="M45.7,76.7L45.7,76.7c-11.1,0-21.5-6-27.1-15.6c-8.6-14.9-3.5-34,11.4-42.6c4.7-2.7,10.1-4.2,15.6-4.2
	c3.6,0,7.2,0.6,10.6,1.9c1.9,0.7,3,2.7,2.5,4.7c-1.3,5.4-0.5,11,2.3,15.8c2.8,4.8,7.2,8.3,12.5,9.9c2,0.6,3.2,2.5,2.8,4.5
	c-1.6,9.1-7.1,16.9-15.1,21.5C56.6,75.3,51.2,76.7,45.7,76.7z M45.7,22.3c-4,0-8,1.1-11.6,3.1C23,31.8,19.2,46,25.6,57.1
	c4.1,7.2,11.8,11.6,20.1,11.6h0c4,0,8.1-1.1,11.6-3.1c5-2.9,8.6-7.4,10.4-12.8c-5.7-2.5-10.4-6.7-13.6-12.2
	c-3.1-5.5-4.4-11.7-3.8-17.9C48.8,22.4,47.3,22.3,45.7,22.3z"/>
        <path d="M86.9,72.8H4.1c-2.2,0-4,1.8-4,4s1.8,4,4,4h82.8c2.2,0,4-1.8,4-4S89.1,72.8,86.9,72.8z"/>
        <path d="M49.5,51.5l-4,4l-4-4c-1.2-1.2-3.1-1.2-4.2,0c-1.2,1.2-1.2,3.1,0,4.2l6.1,6.1c0.6,0.6,1.4,0.9,2.1,0.9s1.5-0.3,2.1-0.9
		l6.1-6.1c1.2-1.2,1.2-3.1,0-4.2C52.6,50.4,50.7,50.4,49.5,51.5z"/>
    </symbol>
    <symbol viewBox="0 0 91 91" id="moon-rise">
        <path d="M45.7,76.7L45.7,76.7c-11.1,0-21.5-6-27.1-15.6c-8.6-14.9-3.5-34,11.4-42.6c4.7-2.7,10.1-4.2,15.6-4.2
	c3.6,0,7.2,0.6,10.6,1.9c1.9,0.7,3,2.7,2.5,4.7c-1.3,5.4-0.5,11,2.3,15.8c2.8,4.8,7.2,8.3,12.5,9.9c2,0.6,3.2,2.5,2.8,4.5
	c-1.6,9.1-7.1,16.9-15.1,21.5C56.6,75.3,51.2,76.7,45.7,76.7z M45.7,22.3c-4,0-8,1.1-11.6,3.1C23,31.8,19.2,46,25.6,57.1
	c4.1,7.2,11.8,11.6,20.1,11.6h0c4,0,8.1-1.1,11.6-3.1c5-2.9,8.6-7.4,10.4-12.8c-5.7-2.5-10.4-6.7-13.6-12.2
	c-3.1-5.5-4.4-11.7-3.8-17.9C48.8,22.4,47.3,22.3,45.7,22.3z"/>
        <path d="M86.9,72.8H4.1c-2.2,0-4,1.8-4,4s1.8,4,4,4h82.8c2.2,0,4-1.8,4-4S89.1,72.8,86.9,72.8z"/>
        <path d="M49.5,51.5l-4,4l-4-4c-1.2-1.2-3.1-1.2-4.2,0c-1.2,1.2-1.2,3.1,0,4.2l6.1,6.1c0.6,0.6,1.4,0.9,2.1,0.9s1.5-0.3,2.1-0.9
		l6.1-6.1c1.2-1.2,1.2-3.1,0-4.2C52.6,50.4,50.7,50.4,49.5,51.5z"/>
    </symbol>
    <symbol viewBox="0 0 24 24" id="marker-down">
        <path d="M12 16.086l7.293-7.293a1 1 0 1 1 1.414 1.414l-8 8a1 1 0 0 1-1.414 0l-8-8a1 1 0 1 1 1.414-1.414L12 16.086z"></path>
    </symbol>
    <symbol viewBox="0 0 24 24" id="marker-up">
        <path d="M12 8.914l7.293 7.293a1 1 0 1 0 1.414-1.414l-8-8a1 1 0 0 0-1.414 0l-8 8a1 1 0 1 0 1.414 1.414L12 8.914z"></path>
    </symbol>
    <symbol viewBox="0 0 91 91" id="moon-50">
        <path d="M47.2,78.1c-11.6,0-22.5-6.3-28.3-16.3c-9-15.6-3.6-35.6,11.9-44.6c5.3-3.1,11.5-4.6,17.6-4.3c1.5,0.1,2.8,0.9,3.4,2.2
	c0.7,1.3,0.5,2.9-0.3,4.1c-5,7.2-5.4,16.8-1,24.3c4.1,7,11.6,11.4,19.8,11.4c0.6,0,1.2,0,1.8-0.1c1.5-0.1,2.9,0.6,3.7,1.8
	c0.8,1.2,0.9,2.8,0.2,4.1c-2.9,5.5-7.2,10-12.6,13.1C58.5,76.6,52.9,78.1,47.2,78.1z M41.4,21.5c-2.3,0.5-4.5,1.4-6.6,2.6
	C23.1,31,19,46.1,25.8,57.8c4.4,7.6,12.6,12.3,21.4,12.3c4.3,0,8.5-1.1,12.3-3.3c2.1-1.2,4-2.7,5.6-4.4c-8.9-1.6-16.8-7-21.4-14.9
	C39.1,39.5,38.4,30,41.4,21.5z"/>
    </symbol>
    <symbol viewBox="0 0 91 91" id="thermometer-50">
        <path d="M55.8,57.2V12.7c0-5.7-4.6-10.2-10.2-10.2c-5.7,0-10.2,4.6-10.2,10.2v44.6c-4.4,3.2-7.1,8.4-7.1,14
	c0,9.6,7.8,17.4,17.4,17.4c9.6,0,17.4-7.8,17.4-17.4C62.9,65.7,60.2,60.5,55.8,57.2z M45.5,9.4c1.8,0,3.2,1.5,3.2,3.2v28.1h-6.5
	V12.7C42.3,10.9,43.7,9.4,45.5,9.4z"/>
    </symbol>
    <symbol viewBox="0 0 91 91" id="compass-east">
        <g>
            <path d="M67.5,48.3c1.2-0.4,1.9-1.6,1.9-2.8c0-1.2-0.8-2.4-1.9-2.8L29.6,28.3c-1.3-0.5-2.7-0.1-3.5,1c-0.4,0.5-0.6,1.1-0.6,1.8
                c0,0.7,0.2,1.3,0.7,1.9l10.2,12.5L26.2,58c-0.9,1.1-0.9,2.6-0.1,3.7c0.8,1.1,2.2,1.5,3.5,1L67.5,48.3z M42.6,47.4
                c0.9-1.1,0.9-2.7,0-3.8L38,37.9l20,7.6l-20,7.6L42.6,47.4z"/>
        </g>
    </symbol>
    <symbol viewBox="0 0 91 91" id="thermometer-100">
        <path d="M55.8,57.2V12.7c0-5.7-4.6-10.3-10.2-10.3c-5.7,0-10.2,4.6-10.2,10.3v44.6c-4.4,3.2-7.1,8.4-7.1,14
        c0,9.6,7.8,17.4,17.4,17.4s17.4-7.8,17.4-17.4C62.9,65.7,60.2,60.5,55.8,57.2z"/>
    </symbol>
    <symbol viewBox="0 0 100 100" id="eye">
        <path d="M88.46,49.71a2.69,2.69,0,0,0-.11-.57c0-.1-.07-.2-.11-.3s0-.12-.07-.17a.54.54,0,0,0-.07-.13v0a42.6,42.6,0,
    0,0-76.17,0v0s-.05.09-.07.14a1.22,1.22,0,0,0-.07.17c0,.1-.08.2-.11.3a2.69,2.69,0,0,0-.11.57,4.21,4.21,0,0,0,0,.58,
    2.69,2.69,0,0,0,.11.57c0,.1.07.2.11.3a1.22,1.22,0,0,0,.07.17c0,.05.05.09.07.14v0a42.6,42.6,0,0,0,76.17,0v0a.54.54,
    0,0,0,.07-.13s0-.11.07-.17.08-.2.11-.3a2.69,2.69,0,0,0,.11-.57,4.21,4.21,0,0,0,0-.58ZM50,60A10,10,0,1,1,60,50,10,
    10,0,0,1,50,60Z"/>
    </symbol>
    <symbol viewBox="0 0 229.6 229.6" id="half-moon">
        <path d="M114.8,0C51.7,0,0,51.6,0,114.8s51.7,114.8,114.8,114.8c63.1,0,114.8-51.7,114.8-114.8C229.6,51.7,177.899,0,114.8,0z
		 M114.8,210.399v-95.6V19.2c53.5,0,95.6,42.1,95.6,95.6S168.3,210.399,114.8,210.399z"/>
    </symbol>
</svg>